<?xml version="1.0" standalone="no"?><svg xmlns:xlink="http://www.w3.org/1999/xlink" xmlns="http://www.w3.org/2000/svg" viewBox="0 0 1000 625" preserveAspectRatio="xMaxYMax slice"><g transform="scale(0.8620689655172413)"><rect x="0" y="0" width="1160" height="725" fill="#ffffff"/><rect x="435" y="0" width="72.5" height="72.5" fill="#ffffff"/><path d="M 435 0 A 36.25 36.25 0 0 1  471.25 36.25 L 435 0 A 36.25 36.25 0 0 0 471.25 36.25" fill="#d9dffb"/><path d="M 435 72.5 A 36.25 36.25 0 0 1  471.25 36.25 L 435 72.5 A 36.25 36.25 0 0 0 471.25 36.25" fill="#cfd7fa"/><path d="M 1015 72.5 A 72.5 72.5 0 0 1  1087.5 0 L 1015 72.5 A 72.5 72.5 0 0 0 1087.5 0" fill="#e9edfd"/><rect x="72.5" y="72.5" width="72.5" height="72.5" fill="#ffffff"/><path d="M 108.75 108.75 A 36.25 36.25 0 0 1  145 72.5 L 108.75 108.75 A 36.25 36.25 0 0 0 145 72.5" fill="#dfe5fc"/><path d="M 108.75 108.75 A 36.25 36.25 0 0 1  145 145 L 108.75 108.75 A 36.25 36.25 0 0 0 145 145" fill="#aeb6e6"/><path d="M 580 145 A 72.5 72.5 0 0 1  652.5 72.5 L 580 145 A 72.5 72.5 0 0 0 652.5 72.5" fill="#d9dffb"/><rect x="870" y="72.5" width="72.5" height="72.5" fill="#ffffff"/><rect x="1015" y="72.5" width="72.5" height="72.5" fill="#ffffff"/><path d="M 1051.25 108.75 A 36.25 36.25 0 0 1  1087.5 145 L 1051.25 108.75 A 36.25 36.25 0 0 0 1087.5 145" fill="#b7c3f7"/><rect x="1087.5" y="72.5" width="72.5" height="72.5" fill="#ffffff"/><path d="M 1123.75 72.5 A 36.25 36.25 0 0 1  1160 108.75 L 1123.75 72.5 A 36.25 36.25 0 0 0 1160 108.75" fill="#465ac7"/><path d="M 1087.5 108.75 A 36.25 36.25 0 0 1  1123.75 145 L 1087.5 108.75 A 36.25 36.25 0 0 0 1123.75 145" fill="#5c6dcd"/><rect x="580" y="145" width="72.5" height="72.5" fill="#ffffff"/><path d="M 652.5 145 A 72.5 72.5 0 0 1  725 217.5 L 652.5 145 A 72.5 72.5 0 0 0 725 217.5" fill="#99a4e0"/><rect x="725" y="145" width="72.5" height="72.5" fill="#ffffff"/><path d="M 761.25 145 A 36.25 36.25 0 0 1  797.5 181.25 L 761.25 145 A 36.25 36.25 0 0 0 797.5 181.25" fill="#364bc1"/><path d="M 362.5 217.5 A 72.5 72.5 0 0 1  435 290 L 362.5 217.5 A 72.5 72.5 0 0 0 435 290" fill="#fbfcff"/><rect x="580" y="217.5" width="72.5" height="72.5" fill="#ffffff"/><rect x="652.5" y="217.5" width="72.5" height="72.5" fill="#ffffff"/><path d="M 688.75 290 A 36.25 36.25 0 0 1  725 253.75 L 688.75 290 A 36.25 36.25 0 0 0 725 253.75" fill="#7c8ad7"/><rect x="725" y="217.5" width="72.5" height="72.5" fill="#ffffff"/><path d="M 725 217.5 A 36.25 36.25 0 0 1  761.25 253.75 L 725 217.5 A 36.25 36.25 0 0 0 761.25 253.75" fill="#c6d0f9"/><rect x="797.5" y="217.5" width="72.5" height="72.5" fill="#ffffff"/><path d="M 833.75 253.75 A 36.25 36.25 0 0 1  870 217.5 L 833.75 253.75 A 36.25 36.25 0 0 0 870 217.5" fill="#c1ccf8"/><path d="M 797.5 290 A 36.25 36.25 0 0 1  833.75 253.75 L 797.5 290 A 36.25 36.25 0 0 0 833.75 253.75" fill="#8794da"/><path d="M 1015 217.5 A 72.5 72.5 0 0 1  1087.5 290 L 1015 217.5 A 72.5 72.5 0 0 0 1087.5 290" fill="#b9c0e9"/><rect x="1087.5" y="217.5" width="72.5" height="72.5" fill="#ffffff"/><path d="M 1087.5 253.75 A 36.25 36.25 0 0 1  1123.75 290 L 1087.5 253.75 A 36.25 36.25 0 0 0 1123.75 290" fill="#cfd7fa"/><path d="M 72.5 290 A 72.5 72.5 0 0 1  145 362.5 L 72.5 290 A 72.5 72.5 0 0 0 145 362.5" fill="#a4b4f5"/><rect x="290" y="290" width="72.5" height="72.5" fill="#ffffff"/><path d="M 326.25 326.25 A 36.25 36.25 0 0 1  362.5 290 L 326.25 326.25 A 36.25 36.25 0 0 0 362.5 290" fill="#6c7cd2"/><path d="M 507.5 290 A 72.5 72.5 0 0 1  580 362.5 L 507.5 290 A 72.5 72.5 0 0 0 580 362.5" fill="#d9e0fb"/><path d="M 580 362.5 A 72.5 72.5 0 0 1  652.5 290 L 580 362.5 A 72.5 72.5 0 0 0 652.5 290" fill="#3f53c4"/><path d="M 652.5 362.5 A 72.5 72.5 0 0 1  725 290 L 652.5 362.5 A 72.5 72.5 0 0 0 725 290" fill="#7c8ad7"/><rect x="797.5" y="290" width="72.5" height="72.5" fill="#ffffff"/><rect x="1015" y="290" width="72.5" height="72.5" fill="#ffffff"/><path d="M 1087.5 362.5 A 72.5 72.5 0 0 1  1160 290 L 1087.5 362.5 A 72.5 72.5 0 0 0 1160 290" fill="#8693da"/><path d="M 72.5 362.5 A 72.5 72.5 0 0 1  145 435 L 72.5 362.5 A 72.5 72.5 0 0 0 145 435" fill="#485bc7"/><path d="M 652.5 435 A 72.5 72.5 0 0 1  725 362.5 L 652.5 435 A 72.5 72.5 0 0 0 725 362.5" fill="#e5e8f7"/><path d="M 1015 435 A 72.5 72.5 0 0 1  1087.5 362.5 L 1015 435 A 72.5 72.5 0 0 0 1087.5 362.5" fill="#eff1fa"/><path d="M 435 507.5 A 72.5 72.5 0 0 1  507.5 435 L 435 507.5 A 72.5 72.5 0 0 0 507.5 435" fill="#8995db"/><path d="M 725 435 A 72.5 72.5 0 0 1  797.5 507.5 L 725 435 A 72.5 72.5 0 0 0 797.5 507.5" fill="#5f6fce"/><path d="M 0 580 A 72.5 72.5 0 0 1  72.5 507.5 L 0 580 A 72.5 72.5 0 0 0 72.5 507.5" fill="#c6d0f9"/><path d="M 580 580 A 72.5 72.5 0 0 1  652.5 507.5 L 580 580 A 72.5 72.5 0 0 0 652.5 507.5" fill="#6172cf"/><path d="M 797.5 507.5 A 72.5 72.5 0 0 1  870 580 L 797.5 507.5 A 72.5 72.5 0 0 0 870 580" fill="#9fa9e2"/><rect x="870" y="507.5" width="72.5" height="72.5" fill="#ffffff"/><path d="M 906.25 507.5 A 36.25 36.25 0 0 1  942.5 543.75 L 906.25 507.5 A 36.25 36.25 0 0 0 942.5 543.75" fill="#6070ce"/><path d="M 906.25 543.75 A 36.25 36.25 0 0 1  942.5 580 L 906.25 543.75 A 36.25 36.25 0 0 0 942.5 580" fill="#e4e7f7"/><path d="M 145 580 A 72.5 72.5 0 0 1  217.5 652.5 L 145 580 A 72.5 72.5 0 0 0 217.5 652.5" fill="#e5e9fc"/><rect x="435" y="580" width="72.5" height="72.5" fill="#ffffff"/><path d="M 435 652.5 A 36.25 36.25 0 0 1  471.25 616.25 L 435 652.5 A 36.25 36.25 0 0 0 471.25 616.25" fill="#2d43bf"/><path d="M 471.25 616.25 A 36.25 36.25 0 0 1  507.5 652.5 L 471.25 616.25 A 36.25 36.25 0 0 0 507.5 652.5" fill="#c5cbed"/><rect x="507.5" y="580" width="72.5" height="72.5" fill="#ffffff"/><path d="M 543.75 616.25 A 36.25 36.25 0 0 1  580 580 L 543.75 616.25 A 36.25 36.25 0 0 0 580 580" fill="#a3b3f5"/><path d="M 543.75 652.5 A 36.25 36.25 0 0 1  580 616.25 L 543.75 652.5 A 36.25 36.25 0 0 0 580 616.25" fill="#8a97db"/><path d="M 725 652.5 A 72.5 72.5 0 0 1  797.5 580 L 725 652.5 A 72.5 72.5 0 0 0 797.5 580" fill="#d9e0fb"/><path d="M 870 652.5 A 72.5 72.5 0 0 1  942.5 580 L 870 652.5 A 72.5 72.5 0 0 0 942.5 580" fill="#c1ccf8"/><path d="M 1087.5 652.5 A 72.5 72.5 0 0 1  1160 580 L 1087.5 652.5 A 72.5 72.5 0 0 0 1160 580" fill="#e4e8fc"/><path d="M 580 725 A 72.5 72.5 0 0 1  652.5 652.5 L 580 725 A 72.5 72.5 0 0 0 652.5 652.5" fill="#2c42be"/></g></svg>